<svg width="20" height="15" viewBox="0 0 20 15" fill="none" xmlns="http://www.w3.org/2000/svg">
<path d="M17.6 0.5H2C0.89543 0.5 0 1.39543 0 2.5V12.5C0 13.6046 0.89543 14.5 2 14.5H17.6C18.7046 14.5 19.6 13.6046 19.6 12.5V2.5C19.6 1.39543 18.7046 0.5 17.6 0.5Z" fill="white"/>
<mask id="mask0_4073_767" style="mask-type:luminance" maskUnits="userSpaceOnUse" x="0" y="0" width="20" height="15">
<path d="M17.6 0.5H2C0.89543 0.5 0 1.39543 0 2.5V12.5C0 13.6046 0.89543 14.5 2 14.5H17.6C18.7046 14.5 19.6 13.6046 19.6 12.5V2.5C19.6 1.39543 18.7046 0.5 17.6 0.5Z" fill="white"/>
</mask>
<g mask="url(#mask0_4073_767)">
<path fill-rule="evenodd" clip-rule="evenodd" d="M19.6 0.5H0V1.433H19.6V0.5ZM19.6 2.367H0V3.3H19.6V2.367ZM0 4.233H19.6V5.167H0V4.233ZM19.6 6.1H0V7.033H19.6V6.1ZM0 7.967H19.6V8.9H0V7.967ZM19.6 9.833H0V10.767H19.6V9.833ZM0 11.7H19.6V12.633H0V11.7ZM19.6 13.567H0V14.5H19.6V13.567Z" fill="#D02F44"/>
<path d="M0 0.5H8.4V7.033H0V0.5Z" fill="#46467F"/>
<g filter="url(#filter0_d_4073_767)">
<path fill-rule="evenodd" clip-rule="evenodd" d="M1.86711 1.89998C1.86711 2.02384 1.8179 2.14262 1.73032 2.2302C1.64274 2.31778 1.52396 2.36698 1.40011 2.36698C1.27625 2.36698 1.15747 2.31778 1.06989 2.2302C0.982308 2.14262 0.933105 2.02384 0.933105 1.89998C0.933105 1.77613 0.982308 1.65734 1.06989 1.56976C1.15747 1.48219 1.27625 1.43298 1.40011 1.43298C1.52396 1.43298 1.64274 1.48219 1.73032 1.56976C1.8179 1.65734 1.86711 1.77613 1.86711 1.89998ZM3.73311 1.89998C3.73603 1.96306 3.72613 2.02608 3.704 2.08522C3.68187 2.14436 3.64798 2.19841 3.60438 2.24408C3.56077 2.28975 3.50835 2.3261 3.4503 2.35094C3.39224 2.37578 3.32975 2.38859 3.26661 2.38859C3.20346 2.38859 3.14097 2.37578 3.08291 2.35094C3.02486 2.3261 2.97244 2.28975 2.92883 2.24408C2.88523 2.19841 2.85134 2.14436 2.82921 2.08522C2.80709 2.02608 2.79718 1.96306 2.80011 1.89998C2.80566 1.78 2.85724 1.66676 2.94412 1.58382C3.03099 1.50087 3.14649 1.45459 3.26661 1.45459C3.38672 1.45459 3.50222 1.50087 3.5891 1.58382C3.67597 1.66676 3.72755 1.78 3.73311 1.89998ZM5.13311 2.36698C5.25696 2.36698 5.37574 2.31778 5.46332 2.2302C5.5509 2.14262 5.60011 2.02384 5.60011 1.89998C5.60011 1.77613 5.5509 1.65734 5.46332 1.56976C5.37574 1.48219 5.25696 1.43298 5.13311 1.43298C5.00925 1.43298 4.89047 1.48219 4.80289 1.56976C4.71531 1.65734 4.66611 1.77613 4.66611 1.89998C4.66611 2.02384 4.71531 2.14262 4.80289 2.2302C4.89047 2.31778 5.00925 2.36698 5.13311 2.36698ZM7.46711 1.89998C7.46711 2.02384 7.4179 2.14262 7.33032 2.2302C7.24274 2.31778 7.12396 2.36698 7.00011 2.36698C6.87625 2.36698 6.75747 2.31778 6.66989 2.2302C6.58231 2.14262 6.53311 2.02384 6.53311 1.89998C6.53311 1.77613 6.58231 1.65734 6.66989 1.56976C6.75747 1.48219 6.87625 1.43298 7.00011 1.43298C7.12396 1.43298 7.24274 1.48219 7.33032 1.56976C7.4179 1.65734 7.46711 1.77613 7.46711 1.89998ZM2.33311 3.29998C2.39618 3.3029 2.4592 3.293 2.51834 3.27088C2.57749 3.24875 2.63153 3.21486 2.6772 3.17125C2.72287 3.12765 2.75923 3.07523 2.78407 3.01718C2.8089 2.95912 2.82171 2.89663 2.82171 2.83348C2.82171 2.77034 2.8089 2.70785 2.78407 2.64979C2.75923 2.59173 2.72287 2.53932 2.6772 2.49571C2.63153 2.45211 2.57749 2.41822 2.51834 2.39609C2.4592 2.37396 2.39618 2.36406 2.33311 2.36698C2.21312 2.37254 2.09989 2.42412 2.01694 2.51099C1.93399 2.59787 1.88771 2.71337 1.88771 2.83348C1.88771 2.9536 1.93399 3.0691 2.01694 3.15597C2.09989 3.24285 2.21312 3.29443 2.33311 3.29998ZM4.66711 2.83298C4.66711 2.95684 4.6179 3.07562 4.53032 3.1632C4.44274 3.25078 4.32396 3.29998 4.20011 3.29998C4.07625 3.29998 3.95747 3.25078 3.86989 3.1632C3.78231 3.07562 3.73311 2.95684 3.73311 2.83298C3.73311 2.70913 3.78231 2.59034 3.86989 2.50276C3.95747 2.41519 4.07625 2.36598 4.20011 2.36598C4.32396 2.36598 4.44274 2.41519 4.53032 2.50276C4.6179 2.59034 4.66711 2.70913 4.66711 2.83298ZM6.06711 3.29998C6.13018 3.3029 6.1932 3.293 6.25234 3.27088C6.31149 3.24875 6.36553 3.21486 6.4112 3.17125C6.45687 3.12765 6.49323 3.07523 6.51806 3.01718C6.5429 2.95912 6.55571 2.89663 6.55571 2.83348C6.55571 2.77034 6.5429 2.70785 6.51806 2.64979C6.49323 2.59173 6.45687 2.53932 6.4112 2.49571C6.36553 2.45211 6.31149 2.41822 6.25234 2.39609C6.1932 2.37396 6.13018 2.36406 6.06711 2.36698C5.94712 2.37254 5.83389 2.42412 5.75094 2.51099C5.66799 2.59787 5.62171 2.71337 5.62171 2.83348C5.62171 2.9536 5.66799 3.0691 5.75094 3.15597C5.83389 3.24285 5.94712 3.29443 6.06711 3.29998ZM7.46711 3.76698C7.46711 3.89084 7.4179 4.00962 7.33032 4.0972C7.24274 4.18478 7.12396 4.23398 7.00011 4.23398C6.87625 4.23398 6.75747 4.18478 6.66989 4.0972C6.58231 4.00962 6.53311 3.89084 6.53311 3.76698C6.53311 3.64313 6.58231 3.52434 6.66989 3.43676C6.75747 3.34919 6.87625 3.29998 7.00011 3.29998C7.12396 3.29998 7.24274 3.34919 7.33032 3.43676C7.4179 3.52434 7.46711 3.64313 7.46711 3.76698ZM5.13311 4.23298C5.19618 4.2359 5.2592 4.226 5.31834 4.20388C5.37749 4.18175 5.43153 4.14786 5.4772 4.10425C5.52287 4.06065 5.55923 4.00823 5.58406 3.95018C5.6089 3.89212 5.62171 3.82963 5.62171 3.76648C5.62171 3.70334 5.6089 3.64085 5.58406 3.58279C5.55923 3.52473 5.52287 3.47232 5.4772 3.42871C5.43153 3.38511 5.37749 3.35122 5.31834 3.32909C5.2592 3.30696 5.19618 3.29706 5.13311 3.29998C5.01312 3.30554 4.89989 3.35712 4.81694 3.44399C4.73399 3.53087 4.68771 3.64637 4.68771 3.76648C4.68771 3.8866 4.73399 4.0021 4.81694 4.08897C4.89989 4.17585 5.01312 4.22743 5.13311 4.23298ZM3.73311 3.76698C3.73603 3.83006 3.72613 3.89308 3.704 3.95222C3.68187 4.01136 3.64798 4.06541 3.60438 4.11108C3.56077 4.15675 3.50835 4.1931 3.4503 4.21794C3.39224 4.24278 3.32975 4.25559 3.26661 4.25559C3.20346 4.25559 3.14097 4.24278 3.08291 4.21794C3.02486 4.1931 2.97244 4.15675 2.92883 4.11108C2.88523 4.06541 2.85134 4.01136 2.82921 3.95222C2.80709 3.89308 2.79718 3.83006 2.80011 3.76698C2.80566 3.647 2.85724 3.53376 2.94412 3.45082C3.03099 3.36787 3.14649 3.32159 3.26661 3.32159C3.38672 3.32159 3.50222 3.36787 3.5891 3.45082C3.67597 3.53376 3.72755 3.647 3.73311 3.76698ZM1.40011 4.23298C1.46318 4.2359 1.5262 4.226 1.58534 4.20388C1.64449 4.18175 1.69853 4.14786 1.7442 4.10425C1.78987 4.06065 1.82623 4.00823 1.85107 3.95018C1.8759 3.89212 1.88871 3.82963 1.88871 3.76648C1.88871 3.70334 1.8759 3.64085 1.85107 3.58279C1.82623 3.52473 1.78987 3.47232 1.7442 3.42871C1.69853 3.38511 1.64449 3.35122 1.58534 3.32909C1.5262 3.30696 1.46318 3.29706 1.40011 3.29998C1.28012 3.30554 1.16689 3.35712 1.08394 3.44399C1.00099 3.53087 0.95471 3.64637 0.95471 3.76648C0.95471 3.8866 1.00099 4.0021 1.08394 4.08897C1.16689 4.17585 1.28012 4.22743 1.40011 4.23298ZM2.80011 4.69998C2.80303 4.76306 2.79312 4.82608 2.771 4.88522C2.74887 4.94436 2.71498 4.99841 2.67138 5.04408C2.62777 5.08975 2.57535 5.1261 2.5173 5.15094C2.45924 5.17578 2.39675 5.18859 2.33361 5.18859C2.27046 5.18859 2.20797 5.17578 2.14991 5.15094C2.09186 5.1261 2.03944 5.08975 1.99583 5.04408C1.95223 4.99841 1.91834 4.94436 1.89621 4.88522C1.87409 4.82608 1.86418 4.76306 1.86711 4.69998C1.87266 4.58 1.92424 4.46676 2.01112 4.38382C2.09799 4.30087 2.21349 4.25459 2.33361 4.25459C2.45372 4.25459 2.56922 4.30087 2.6561 4.38382C2.74297 4.46676 2.79455 4.58 2.80011 4.69998ZM4.20011 5.16698C4.32396 5.16698 4.44274 5.11778 4.53032 5.0302C4.6179 4.94262 4.66711 4.82384 4.66711 4.69998C4.66711 4.57613 4.6179 4.45734 4.53032 4.36976C4.44274 4.28218 4.32396 4.23298 4.20011 4.23298C4.07625 4.23298 3.95747 4.28218 3.86989 4.36976C3.78231 4.45734 3.73311 4.57613 3.73311 4.69998C3.73311 4.82384 3.78231 4.94262 3.86989 5.0302C3.95747 5.11778 4.07625 5.16698 4.20011 5.16698ZM6.53311 4.69998C6.53603 4.76306 6.52612 4.82608 6.504 4.88522C6.48187 4.94436 6.44798 4.99841 6.40438 5.04408C6.36077 5.08975 6.30835 5.1261 6.2503 5.15094C6.19224 5.17578 6.12975 5.18859 6.06661 5.18859C6.00346 5.18859 5.94097 5.17578 5.88291 5.15094C5.82486 5.1261 5.77244 5.08975 5.72883 5.04408C5.68523 4.99841 5.65134 4.94436 5.62921 4.88522C5.60709 4.82608 5.59718 4.76306 5.60011 4.69998C5.60566 4.58 5.65724 4.46676 5.74412 4.38382C5.83099 4.30087 5.94649 4.25459 6.06661 4.25459C6.18672 4.25459 6.30222 4.30087 6.3891 4.38382C6.47597 4.46676 6.52755 4.58 6.53311 4.69998ZM7.00011 6.09998C7.06318 6.1029 7.1262 6.093 7.18534 6.07088C7.24449 6.04875 7.29853 6.01486 7.3442 5.97125C7.38987 5.92765 7.42623 5.87523 7.45107 5.81718C7.4759 5.75912 7.48871 5.69663 7.48871 5.63348C7.48871 5.57034 7.4759 5.50785 7.45107 5.44979C7.42623 5.39173 7.38987 5.33932 7.3442 5.29571C7.29853 5.25211 7.24449 5.21822 7.18534 5.19609C7.1262 5.17396 7.06318 5.16406 7.00011 5.16698C6.88012 5.17254 6.76689 5.22412 6.68394 5.31099C6.60099 5.39787 6.55471 5.51337 6.55471 5.63348C6.55471 5.7536 6.60099 5.8691 6.68394 5.95597C6.76689 6.04285 6.88012 6.09443 7.00011 6.09998ZM5.60011 5.63298C5.60303 5.69606 5.59313 5.75908 5.571 5.81822C5.54887 5.87736 5.51498 5.93141 5.47138 5.97708C5.42777 6.02275 5.37535 6.0591 5.3173 6.08394C5.25924 6.10878 5.19675 6.12159 5.13361 6.12159C5.07046 6.12159 5.00797 6.10878 4.94991 6.08394C4.89186 6.0591 4.83944 6.02275 4.79583 5.97708C4.75223 5.93141 4.71834 5.87736 4.69621 5.81822C4.67409 5.75908 4.66418 5.69606 4.66711 5.63298C4.67266 5.513 4.72424 5.39976 4.81112 5.31682C4.89799 5.23387 5.01349 5.18759 5.13361 5.18759C5.25372 5.18759 5.36922 5.23387 5.4561 5.31682C5.54297 5.39976 5.59455 5.513 5.60011 5.63298ZM3.26711 6.09998C3.33018 6.1029 3.3932 6.093 3.45234 6.07088C3.51149 6.04875 3.56553 6.01486 3.6112 5.97125C3.65687 5.92765 3.69323 5.87523 3.71807 5.81718C3.7429 5.75912 3.75571 5.69663 3.75571 5.63348C3.75571 5.57034 3.7429 5.50785 3.71807 5.44979C3.69323 5.39173 3.65687 5.33932 3.6112 5.29571C3.56553 5.25211 3.51149 5.21822 3.45234 5.19609C3.3932 5.17396 3.33018 5.16406 3.26711 5.16698C3.14712 5.17254 3.03389 5.22412 2.95094 5.31099C2.86799 5.39787 2.82171 5.51337 2.82171 5.63348C2.82171 5.7536 2.86799 5.8691 2.95094 5.95597C3.03389 6.04285 3.14712 6.09443 3.26711 6.09998ZM1.86711 5.63298C1.86711 5.75684 1.8179 5.87562 1.73032 5.9632C1.64274 6.05078 1.52396 6.09998 1.40011 6.09998C1.27625 6.09998 1.15747 6.05078 1.06989 5.9632C0.982308 5.87562 0.933105 5.75684 0.933105 5.63298C0.933105 5.50913 0.982308 5.39034 1.06989 5.30276C1.15747 5.21518 1.27625 5.16598 1.40011 5.16598C1.52396 5.16598 1.64274 5.21518 1.73032 5.30276C1.8179 5.39034 1.86711 5.50913 1.86711 5.63298Z" fill="url(#paint0_linear_4073_767)"/>
</g>
</g>
<defs>
<filter id="filter0_d_4073_767" x="0.933105" y="1.43298" width="6.55566" height="5.6886" filterUnits="userSpaceOnUse" color-interpolation-filters="sRGB">
<feFlood flood-opacity="0" result="BackgroundImageFix"/>
<feColorMatrix in="SourceAlpha" type="matrix" values="0 0 0 0 0 0 0 0 0 0 0 0 0 0 0 0 0 0 127 0" result="hardAlpha"/>
<feOffset dy="1"/>
<feColorMatrix type="matrix" values="0 0 0 0 0 0 0 0 0 0 0 0 0 0 0 0 0 0 0.06 0"/>
<feBlend mode="normal" in2="BackgroundImageFix" result="effect1_dropShadow_4073_767"/>
<feBlend mode="normal" in="SourceGraphic" in2="effect1_dropShadow_4073_767" result="shape"/>
</filter>
<linearGradient id="paint0_linear_4073_767" x1="0.933105" y1="1.43298" x2="0.933105" y2="6.09998" gradientUnits="userSpaceOnUse">
<stop stop-color="white"/>
<stop offset="1" stop-color="#F0F0F0"/>
</linearGradient>
</defs>
</svg>
